<svg width="905" height="161" viewBox="0 0 905 161" fill="none" xmlns="http://www.w3.org/2000/svg">
<path d="M681.6 99.04C681.6 101.04 681.96 102.92 682.68 104.68C683.4 106.36 684.36 107.84 685.56 109.12C686.84 110.4 688.32 111.4 690 112.12C691.76 112.84 693.64 113.2 695.64 113.2C697.56 113.2 699.36 112.84 701.04 112.12C702.8 111.4 704.28 110.4 705.48 109.12C706.76 107.84 707.76 106.36 708.48 104.68C709.28 103 709.68 101.2 709.68 99.28C709.68 97.36 709.28 95.56 708.48 93.88C707.76 92.12 706.76 90.6 705.48 89.32C704.28 88.04 702.8 87.04 701.04 86.32C699.36 85.6 697.56 85.24 695.64 85.24C693.64 85.24 691.76 85.6 690 86.32C688.32 87.04 686.84 88.04 685.56 89.32C684.36 90.6 683.4 92.08 682.68 93.76C681.96 95.36 681.6 97.12 681.6 99.04ZM708.96 68.44H730.8V130H708.96V123.16C704.32 129 698.04 131.92 690.12 131.92C685.64 131.92 681.52 131.12 677.76 129.52C674 127.84 670.72 125.52 667.92 122.56C665.12 119.6 662.92 116.12 661.32 112.12C659.8 108.12 659.04 103.76 659.04 99.04C659.04 94.64 659.8 90.48 661.32 86.56C662.84 82.56 664.96 79.08 667.68 76.12C670.4 73.16 673.64 70.84 677.4 69.16C681.16 67.4 685.32 66.52 689.88 66.52C697.56 66.52 703.92 69.2 708.96 74.56V68.44ZM771.261 111.88H797.181V130H734.781L763.821 86.56H738.741V68.44H800.061L771.261 111.88ZM826.565 121.6L796.805 68.44H822.005L838.445 100L854.405 68.44H879.365L829.925 160.72H805.565L826.565 121.6Z" fill="#2D3436"/>
<path d="M556.355 21.7584C560.034 8.87931 571.806 0 585.2 0H674L671.645 8.24164C667.966 21.1207 656.194 30 642.8 30H554L556.355 21.7584Z" fill="#297DFE"/>
<path d="M545.347 73.7141C548.311 59.882 560.535 50 574.681 50H634L632.653 56.2859C629.689 70.118 617.465 80 603.319 80H544L545.347 73.7141Z" fill="#F4E830"/>
<path d="M536.355 121.758C540.034 108.879 551.806 100 565.2 100H654L651.645 108.242C647.966 121.121 636.194 130 622.8 130H534L536.355 121.758Z" fill="#9867FF"/>
<path d="M55.3734 99.04C55.3734 101.04 55.7334 102.92 56.4534 104.68C57.1734 106.36 58.1334 107.84 59.3334 109.12C60.6134 110.4 62.0934 111.4 63.7734 112.12C65.5334 112.84 67.4134 113.2 69.4134 113.2C71.3334 113.2 73.1334 112.84 74.8134 112.12C76.5734 111.4 78.0534 110.4 79.2534 109.12C80.5334 107.84 81.5334 106.36 82.2534 104.68C83.0534 103 83.4534 101.2 83.4534 99.28C83.4534 97.36 83.0534 95.56 82.2534 93.88C81.5334 92.12 80.5334 90.6 79.2534 89.32C78.0534 88.04 76.5734 87.04 74.8134 86.32C73.1334 85.6 71.3334 85.24 69.4134 85.24C67.4134 85.24 65.5334 85.6 63.7734 86.32C62.0934 87.04 60.6134 88.04 59.3334 89.32C58.1334 90.6 57.1734 92.08 56.4534 93.76C55.7334 95.36 55.3734 97.12 55.3734 99.04ZM82.7334 68.44H104.573V130H82.7334V123.16C78.0934 129 71.8134 131.92 63.8934 131.92C59.4134 131.92 55.2934 131.12 51.5334 129.52C47.7734 127.84 44.4934 125.52 41.6934 122.56C38.8934 119.6 36.6934 116.12 35.0934 112.12C33.5734 108.12 32.8134 103.76 32.8134 99.04C32.8134 94.64 33.5734 90.48 35.0934 86.56C36.6134 82.56 38.7334 79.08 41.4534 76.12C44.1734 73.16 47.4134 70.84 51.1734 69.16C54.9334 67.4 59.0934 66.52 63.6534 66.52C71.3334 66.52 77.6934 69.2 82.7334 74.56V68.44ZM135.074 68.44V103.12C135.074 110.72 138.754 114.52 146.114 114.52C153.474 114.52 157.154 110.72 157.154 103.12V68.44H178.874V107.32C178.874 115.64 176.114 121.88 170.594 126.04C165.154 130.2 156.994 132.28 146.114 132.28C135.234 132.28 127.034 130.2 121.514 126.04C116.074 121.88 113.354 115.64 113.354 107.32V68.44H135.074ZM211.867 86.56V130H190.148V86.56H182.948V68.44H190.148V49.96H211.867V68.44H224.228V86.56H211.867ZM247.968 98.92C247.968 101 248.328 102.92 249.048 104.68C249.848 106.36 250.848 107.84 252.048 109.12C253.328 110.4 254.808 111.4 256.488 112.12C258.248 112.84 260.088 113.2 262.008 113.2C263.928 113.2 265.728 112.84 267.408 112.12C269.168 111.4 270.648 110.4 271.848 109.12C273.128 107.84 274.128 106.36 274.848 104.68C275.648 102.92 276.048 101.04 276.048 99.04C276.048 97.12 275.648 95.32 274.848 93.64C274.128 91.88 273.128 90.36 271.848 89.08C270.648 87.8 269.168 86.8 267.408 86.08C265.728 85.36 263.928 85 262.008 85C260.088 85 258.248 85.36 256.488 86.08C254.808 86.8 253.328 87.8 252.048 89.08C250.848 90.36 249.848 91.84 249.048 93.52C248.328 95.2 247.968 97 247.968 98.92ZM225.048 98.68C225.048 94.12 225.968 89.88 227.808 85.96C229.648 81.96 232.208 78.52 235.488 75.64C238.768 72.68 242.648 70.36 247.128 68.68C251.688 67 256.648 66.16 262.008 66.16C267.288 66.16 272.168 67 276.648 68.68C281.208 70.28 285.128 72.56 288.408 75.52C291.768 78.4 294.368 81.88 296.208 85.96C298.048 89.96 298.968 94.4 298.968 99.28C298.968 104.16 298.008 108.64 296.088 112.72C294.248 116.72 291.688 120.2 288.408 123.16C285.128 126.04 281.168 128.28 276.528 129.88C271.968 131.48 267.008 132.28 261.648 132.28C256.368 132.28 251.488 131.48 247.008 129.88C242.528 128.28 238.648 126 235.368 123.04C232.168 120.08 229.648 116.56 227.808 112.48C225.968 108.32 225.048 103.72 225.048 98.68ZM305.471 68.44H327.191V76C333.111 70.32 339.751 67.48 347.111 67.48C356.231 67.48 363.191 71.32 367.991 79C372.871 71.24 379.831 67.36 388.871 67.36C391.751 67.36 394.471 67.8 397.031 68.68C399.591 69.48 401.791 70.8 403.631 72.64C405.471 74.4 406.911 76.72 407.951 79.6C409.071 82.48 409.631 85.96 409.631 90.04V130H387.911V99.64C387.911 96.52 387.671 93.96 387.191 91.96C386.791 89.96 386.151 88.4 385.271 87.28C384.471 86.16 383.511 85.4 382.391 85C381.271 84.6 380.071 84.4 378.791 84.4C371.831 84.4 368.351 89.48 368.351 99.64V130H346.631V99.64C346.631 96.52 346.431 93.96 346.031 91.96C345.631 89.88 345.031 88.24 344.231 87.04C343.511 85.84 342.551 85.04 341.351 84.64C340.151 84.16 338.751 83.92 337.151 83.92C335.791 83.92 334.511 84.12 333.311 84.52C332.111 84.92 331.031 85.72 330.071 86.92C329.191 88.04 328.471 89.64 327.911 91.72C327.431 93.72 327.191 96.36 327.191 99.64V130H305.471V68.44ZM438.694 99.04C438.694 101.04 439.054 102.92 439.774 104.68C440.494 106.36 441.454 107.84 442.654 109.12C443.934 110.4 445.414 111.4 447.094 112.12C448.854 112.84 450.734 113.2 452.734 113.2C454.654 113.2 456.454 112.84 458.134 112.12C459.894 111.4 461.374 110.4 462.574 109.12C463.854 107.84 464.854 106.36 465.574 104.68C466.374 103 466.774 101.2 466.774 99.28C466.774 97.36 466.374 95.56 465.574 93.88C464.854 92.12 463.854 90.6 462.574 89.32C461.374 88.04 459.894 87.04 458.134 86.32C456.454 85.6 454.654 85.24 452.734 85.24C450.734 85.24 448.854 85.6 447.094 86.32C445.414 87.04 443.934 88.04 442.654 89.32C441.454 90.6 440.494 92.08 439.774 93.76C439.054 95.36 438.694 97.12 438.694 99.04ZM466.054 68.44H487.894V130H466.054V123.16C461.414 129 455.134 131.92 447.214 131.92C442.734 131.92 438.614 131.12 434.854 129.52C431.094 127.84 427.814 125.52 425.014 122.56C422.214 119.6 420.014 116.12 418.414 112.12C416.894 108.12 416.134 103.76 416.134 99.04C416.134 94.64 416.894 90.48 418.414 86.56C419.934 82.56 422.054 79.08 424.774 76.12C427.494 73.16 430.734 70.84 434.494 69.16C438.254 67.4 442.414 66.52 446.974 66.52C454.654 66.52 461.014 69.2 466.054 74.56V68.44ZM520.914 86.56V130H499.194V86.56H491.994V68.44H499.194V49.96H520.914V68.44H533.274V86.56H520.914Z" fill="#2D3436"/>
</svg>
